<svg width="100" height="35" viewBox="0 0 100 35" fill="none" xmlns="http://www.w3.org/2000/svg">
<g clip-path="url(#clip0)">
<path d="M98.0556 34.8906C99.1088 34.8906 99.973 34.0265 99.973 32.9733V1.91736C99.973 0.864164 99.1088 0 98.0556 0H39.4815C38.4283 0 37.5641 0.864164 37.5641 1.91736V32.9733C37.5641 34.0265 38.4283 34.8906 39.4815 34.8906H98.0556Z" fill="#FF2938"/>
<path fill-rule="evenodd" clip-rule="evenodd" d="M90.2241 22.5493H83.3108V18.4175H89.8461V16.2571H83.3108V12.3413H90.2241V10.0459H80.6643V24.8447H90.2241V22.5493ZM72.9949 24.8447L78.0988 10.0729H75.2903L71.5906 21.7661H71.4286L67.7019 10.0729H64.7853L69.9433 24.8447H72.9949ZM62.2468 24.8447V10.0729H59.6003V24.8447H62.2468ZM56.7378 22.5223H49.9595V10.0729H47.313V24.8447H56.7378V22.5223Z" fill="white"/>
<path d="M34.9176 17.4722C34.9176 7.83134 27.1132 0.0268555 17.4723 0.0268555C7.83149 0.0268555 0 7.83134 0 17.4722C0 26.1948 6.40022 33.4052 14.7448 34.7284V22.5221H10.289V17.4722H14.7448V13.6374C14.7448 9.26261 17.3373 6.83215 21.3341 6.83215C23.2514 6.83215 25.2228 7.21022 25.2228 7.21022V11.477H23.0354C20.875 11.477 20.1728 12.8273 20.1728 14.2045V17.4722H25.0338L24.2506 22.5221H20.1728V34.7284C28.5174 33.4322 34.9176 26.1948 34.9176 17.4722Z" fill="#1877F2"/>
<path d="M24.2506 22.522L25.0338 17.4721H20.1728V14.2044C20.1728 12.8272 20.875 11.4769 23.0354 11.4769H25.2228V7.2101C25.2228 7.2101 23.2514 6.83203 21.3341 6.83203C17.3373 6.83203 14.7448 9.26249 14.7448 13.6373V17.4721H10.289V22.522H14.7448V34.7283C15.636 34.8634 16.5271 34.9444 17.4723 34.9444C18.3905 34.9444 19.3087 34.8634 20.1998 34.7283V22.522H24.2506Z" fill="white"/>
</g>
<defs>
<clipPath id="clip0">
<rect width="100" height="34.9446" fill="white"/>
</clipPath>
</defs>
</svg>
